<?xml version="1.0" encoding="UTF-8"?>
<svg width="1900px" height="1900px" viewBox="0 0 1900 1900" version="1.1" xmlns="http://www.w3.org/2000/svg" xmlns:xlink="http://www.w3.org/1999/xlink">
    <title>app-icon-vector-white-background</title>
    <g id="app-icon" stroke="none" stroke-width="1" fill="none" fill-rule="evenodd">
        <rect fill="#FFFFFF" x="0" y="0" width="1900" height="1900"></rect>
        <g transform="translate(200.000000, 200.000000)" fill="#000000" fill-rule="nonzero">
            <path d="M1375.09843,0 L124.901575,0 C56.1023622,0 0,56.1023622 0,124.901575 L0,1374.80315 C0,1443.89764 56.1023622,1500 124.901575,1500 L1374.80315,1500 C1443.60236,1500 1499.70588,1443.89764 1499.70588,1375.09843 L1499.70588,124.901575 C1500,56.1023622 1443.89764,0 1375.09843,0 Z M827.362205,1093.70079 L827.362205,1416.73228 L672.34252,1416.73228 L672.34252,1093.70079 C672.34252,1070.66929 653.740157,1052.06693 630.708661,1052.06693 L583.759843,1052.06693 L750,885.826772 L916.240157,1052.06693 L869.291339,1052.06693 C846.259843,1052.06693 827.362205,1070.66929 827.362205,1093.70079 Z M1416.73228,1375.09843 C1416.73228,1398.12992 1398.12992,1416.73228 1375.09843,1416.73228 L910.925197,1416.73228 L910.925197,1135.33465 L1016.92913,1135.33465 C1016.92913,1135.33465 1016.92913,1135.33465 1017.22441,1135.33465 C1040.84646,1135.9252 1059.15354,1116.73228 1059.15354,1093.70079 C1059.15354,1080.41339 1052.95276,1068.60236 1043.20866,1060.9252 L779.527559,797.53937 C763.287402,781.299213 737.007874,781.299213 720.472441,797.53937 L453.543307,1064.4685 C441.732283,1076.27953 438.188976,1094.29134 444.389764,1109.94094 C450.885827,1125.59055 465.944882,1135.62992 482.775591,1135.62992 L588.779528,1135.62992 L588.779528,1417.02756 L124.901575,1417.02756 C101.870079,1417.02756 83.2677165,1398.4252 83.2677165,1375.3937 L83.2677165,871.948819 L194.88189,871.948819 C217.913386,871.948819 236.515748,853.346457 236.515748,830.314961 C236.515748,807.283465 217.913386,788.681102 194.88189,788.681102 L83.2677165,788.681102 L83.2677165,706.003937 L278.149606,706.003937 C301.181102,706.003937 319.783465,687.401575 319.783465,664.370079 C319.783465,641.338583 301.181102,622.73622 278.149606,622.73622 L83.2677165,622.73622 L83.2677165,438.779528 L1416.73228,438.779528 L1416.73228,1375.09843 Z M1416.73228,355.216535 L83.2677165,355.216535 L83.2677165,124.901575 C83.2677165,101.870079 101.870079,83.2677165 124.901575,83.2677165 L1374.80315,83.2677165 C1397.83465,83.2677165 1416.43701,101.870079 1416.43701,124.901575 L1416.43701,355.216535 L1416.73228,355.216535 Z" id="Shape"></path>
            <path d="M832.972441,176.279528 L780.11811,176.279528 C757.086614,176.279528 738.484252,194.88189 738.484252,217.913386 C738.484252,240.944882 757.086614,259.84252 780.11811,259.84252 L832.972441,259.84252 C856.003937,259.84252 874.606299,241.240157 874.606299,218.208661 C874.606299,195.177165 856.003937,176.279528 832.972441,176.279528 Z" id="Path"></path>
            <path d="M1059.15354,176.279528 L1006.29921,176.279528 C983.267717,176.279528 964.665354,194.88189 964.665354,217.913386 C964.665354,240.944882 983.267717,259.84252 1006.29921,259.84252 L1059.15354,259.84252 C1082.18504,259.84252 1100.7874,241.240157 1100.7874,218.208661 C1100.7874,195.177165 1081.88976,176.279528 1059.15354,176.279528 Z" id="Path"></path>
            <path d="M1285.03937,176.279528 L1232.18504,176.279528 C1209.15354,176.279528 1190.55118,194.88189 1190.55118,217.913386 C1190.55118,240.944882 1209.15354,259.84252 1232.18504,259.84252 L1285.03937,259.84252 C1308.07087,259.84252 1326.67323,241.240157 1326.67323,218.208661 C1326.67323,195.177165 1308.07087,176.279528 1285.03937,176.279528 Z" id="Path"></path>
        </g>
    </g>
</svg>