<svg xmlns="http://www.w3.org/2000/svg" xmlns:xlink="http://www.w3.org/1999/xlink" version="1.1" x="0px" y="0px" viewBox="0 0 512 640" enable-background="new 0 0 512 512" xml:space="preserve"><g><path d="M467.7,2H44.3C21,2,2,21,2,44.3v423.3C2,491,21,510,44.3,510h423.3c23.3,0,42.3-19,42.3-42.3V44.3C510,21,491,2,467.7,2z    M282.2,372.4v109.4h-52.5V372.4c0-7.8-6.3-14.1-14.1-14.1h-15.9L256,302l56.3,56.3h-15.9C288.6,358.3,282.2,364.6,282.2,372.4z    M481.8,467.7c0,7.8-6.3,14.1-14.1,14.1H310.5v-95.3h35.9c0,0,0,0,0.1,0c8,0.2,14.2-6.3,14.2-14.1c0-4.5-2.1-8.5-5.4-11.1   L266,272.1c-5.5-5.5-14.4-5.5-20,0l-90.4,90.4c-4,4-5.2,10.1-3.1,15.4c2.2,5.3,7.3,8.7,13,8.7h35.9v95.3H44.3   c-7.8,0-14.1-6.3-14.1-14.1V297.3H68c7.8,0,14.1-6.3,14.1-14.1c0-7.8-6.3-14.1-14.1-14.1H30.2v-28h66c7.8,0,14.1-6.3,14.1-14.1   c0-7.8-6.3-14.1-14.1-14.1h-66v-62.3h451.6V467.7z M481.8,122.3H30.2v-78c0-7.8,6.3-14.1,14.1-14.1h423.3c7.8,0,14.1,6.3,14.1,14.1   V122.3z"/><path d="M284.1,61.7h-17.9c-7.8,0-14.1,6.3-14.1,14.1S258.4,90,266.2,90h17.9c7.8,0,14.1-6.3,14.1-14.1S291.9,61.7,284.1,61.7z"/><path d="M360.7,61.7h-17.9c-7.8,0-14.1,6.3-14.1,14.1S335,90,342.8,90h17.9c7.8,0,14.1-6.3,14.1-14.1S368.4,61.7,360.7,61.7z"/><path d="M437.2,61.7h-17.9c-7.8,0-14.1,6.3-14.1,14.1S411.5,90,419.3,90h17.9c7.8,0,14.1-6.3,14.1-14.1S445,61.7,437.2,61.7z"/></g><text x="0" y="527" fill="#000000" font-size="5px" font-weight="bold" font-family="'Helvetica Neue', Helvetica, Arial-Unicode, Arial, Sans-serif">Created by Icon Fair</text><text x="0" y="532" fill="#000000" font-size="5px" font-weight="bold" font-family="'Helvetica Neue', Helvetica, Arial-Unicode, Arial, Sans-serif">from the Noun Project</text></svg>